Patient4_TMGait_0pt6_01_right_42_EMG.mot
version=1
nRows=34
nColumns=33
inDegrees=no
endheader
time	1LAddLong	2LGlutMax	3LGlutMed	4LIliopsoas	5LSemiMemb	6LBicFemLong	7LRecFem	8LVastMed	9LVastLat	10LGasMed	11LTibAnt	12lTibPost	13LPeroneusLong	14LSol	15LExtDigLong	16LFlexDigLong	17RAddLong	18RGlutMax	19RGlutMed	20RIliopsoas	21RSemiMemb	22RBicFemLong	23RRecFem	24RVastMed	25RVastLat	26RGasMed	27RTibAnt	28RTibPost	29RPeroneusLong	30RSol	31RExtDigLong	32RFlexDigLong
50.932	-0.010223	-0.28976	-0.16556	-0.014801	-0.011292	0.015259	0.35553	-0.001068	0.072632	0.085144	-0.007629	0.001373	-0.048676	0.074615	-0.070496	-0.004425	-0.002899	-0.58365	0.48706	0.088806	-0.17258	0.34119	-0.26169	0.27084	-0.055237	0.007782	-0.18463	-0.014496	0.24658	-0.69397	-0.00412	-0.026093
50.933	-0.01358	-0.25101	-0.15991	-0.003357	-0.002747	0.005646	0.45654	-0.001831	0.071869	0.15762	-0.018463	0.006561	-0.059814	0.08728	-0.088806	0.088654	-0.08606	-0.4187	1.4561	-0.056	-0.18448	0.85724	-0.017242	0.27206	-0.098267	-0.014954	0.15747	0.009155	-2.3172	-0.5043	-0.002899	-0.026093
50.934	-0.00351	-0.19882	-0.16419	-0.001526	-0.005951	0.003662	0.49637	0.005493	0.080872	0.15259	-0.006256	0.012054	-0.062866	0.083923	-0.083923	0.085144	-0.053101	-0.3598	1.2425	-0.095825	-0.10193	0.65521	0.14694	0.13992	-0.11383	0.011292	0.18829	-0.031281	-1.7194	-0.25314	-0.000916	-0.023804
50.935	-0.003204	-0.18997	-0.17014	0.010986	0.00412	0.017242	0.37567	0.00412	0.10712	-0.17578	-0.03891	0.010529	-0.050201	0.11353	-0.072021	-0.34149	-0.066986	-0.44388	1.2358	-0.053253	0.10254	0.41779	0.11963	0.11917	-0.13412	0.042725	-0.2034	-0.071716	-0.92071	-0.37827	-0.003052	-0.007629
50.936	0.006256	-0.11215	-0.16312	-0.008392	-0.007782	0.011292	0.23132	0.086365	0.11292	-0.053253	-0.069275	0.009766	-0.075073	0.11383	-0.067596	0.27115	-0.086975	-0.42664	1.1404	0.002899	0.036926	0.59113	-0.034027	1.015	-0.063324	0.06134	-0.27435	-0.033875	0.18021	-0.26245	-0.001831	-0.020447
50.937	-0.055389	-0.04715	-0.17899	0.013123	-0.004578	0.016632	0.1294	-0.011292	0.11383	0.020294	-0.051422	0.007324	-0.15823	0.12634	-0.075073	0.1358	-0.12741	-0.55817	-0.27359	0.077362	0.20081	0.73502	-0.15961	1.3118	0.09964	0.055084	-0.24063	-0.019989	0.78156	-0.063629	0.00061	-0.020447
50.938	0.041199	-0.061951	-0.16129	0.013123	0.010223	0.008545	0.10147	0.003357	0.093842	0.1767	-0.031433	0.014496	-0.20142	0.065155	-0.032501	0.045624	-0.11078	-0.80994	-0.65079	0.079498	0.31479	0.62592	0.061798	0.74081	0.18265	0.053711	-0.2066	-0.021515	0.16617	-0.24078	0.001068	-0.021515
50.939	0.018005	-0.041962	-0.16556	-0.003204	-0.007782	0.013123	0.27985	0.010681	0.076447	0.35156	-0.024719	0.003052	-0.10986	-0.051727	-0.013275	0.028381	-0.088501	-1.0533	-0.52658	0.10605	0.2211	0.56717	0.55527	0.14923	0.18478	0.075073	-0.02243	-0.027161	0.33432	-0.11322	-0.003357	-0.024567
50.94	-0.006866	-0.041351	-0.13138	-0.014954	-0.00412	0.009613	0.47379	0.00946	0.084076	0.2417	-0.027466	0.00473	-0.020447	0.0383	-0.021973	-0.36713	-0.040436	-1.3087	-0.45746	0.02182	-0.065613	0.19196	0.84473	-0.45914	0.093689	0.046539	0.11673	-0.03891	-0.045471	-0.060272	-0.00473	-0.021515
50.941	-0.007019	0.013275	-0.11597	-0.014496	-0.000916	-0.001373	0.49957	0.016327	0.060425	-0.082855	-0.014191	0.01358	0.057831	0.17777	-0.011749	-0.17242	-0.028381	-1.2326	0.041351	-0.22736	-0.08667	0.031738	0.83817	-0.7074	0.13855	-0.04715	0.22415	-0.052185	-1.0771	-0.20813	-0.005493	-0.023956
50.942	-0.012817	0.001984	-0.083771	0.005188	-0.003052	-0.006256	0.40863	0.009918	0.066223	-0.32867	-0.002899	0.015869	0.061493	0.15564	-0.0177	0.27268	-0.094147	-1.259	-0.51468	-0.3302	0.056152	0.22705	0.90912	-0.45105	0.42984	-0.17044	0.19653	-0.063019	-0.51392	-0.26245	-0.007629	-0.028687
50.943	-0.008087	0.052185	-0.061798	-0.008545	-0.000305	-0.002289	0.39169	0.009003	0.073547	-0.28137	0.002289	0.038452	0.013428	0.14435	-0.023346	0.05722	-0.15717	-1.4781	-0.23254	-0.17761	0.36545	0.46402	1.032	0.12955	0.401	-0.2977	0.094757	-0.011749	0.28595	0.10376	-0.001678	-0.017395
50.944	-0.014191	0.06546	-0.04715	-0.007477	-0.01709	-0.012817	0.45395	0.010071	0.062103	-0.345	0.005341	0.02121	-0.08667	-0.23865	-0.01709	0.13428	-0.10468	-1.5707	-0.44647	-0.061646	0.3743	0.3389	1.2532	-0.024872	0.19653	-0.11154	0.024109	-0.15686	0.45319	-0.06485	-0.001831	-0.014343
50.945	-0.016785	0.1059	-0.040588	-0.017548	-0.002899	-0.0177	0.33447	-0.001678	0.058289	-0.47165	0.001373	0.017548	-0.089264	-0.42633	0.002136	-0.12009	-0.05722	-1.5704	-0.36148	0.10605	0.17624	0.20279	0.88531	-0.048981	0.068817	-0.009766	0.03067	-0.24048	-0.12619	-0.22247	-0.003052	-0.024109
50.946	-0.017853	0.12817	-0.044556	0.005035	-0.00061	-0.027161	0.12573	-0.001068	0.075378	-0.32928	0.022583	0.022125	-0.078735	-0.33997	0.018158	0.14099	-0.047302	-1.5765	-0.83374	0.22369	0.080261	0.22827	-0.24017	-0.17716	0.01709	-0.072784	0.005798	0.24338	-0.65781	-0.42206	-0.00946	-0.027161
50.947	-0.013733	0.21164	-0.03952	-0.001526	-0.001221	-0.036926	-0.12177	-0.004578	0.063019	-0.027313	0.038147	0.02655	-0.064392	-0.2945	0.016174	-0.37079	-0.05188	-1.7328	-1.2088	0.14511	0.027313	0.44952	-0.58563	0.058441	-0.15411	-0.024109	0.002747	0.15869	-0.062866	-0.006714	-0.004578	-0.02655
50.948	-0.010681	0.25253	-0.061188	0.009918	0.010223	-0.009308	-0.25452	0.001526	0.044403	-0.12344	0.013733	0.023651	-0.054169	-0.049896	0.14603	0.04364	-0.03891	-1.8159	-0.90363	-0.00061	-0.02533	0.34805	-0.1178	0.15289	-0.50995	0.007782	-0.059509	0.22003	0.59753	0.7724	-0.00412	-0.021667
50.949	-0.00351	0.31525	-0.041656	-0.010834	0.001373	-0.011444	-0.19943	0.000916	0.029602	-0.24063	-0.028076	-0.001373	-0.066223	0.14847	0.19577	0.10239	-0.024109	-1.9272	-0.76569	-0.001068	-0.075378	0.12528	-0.014496	0.18341	-0.56122	0.02243	0.010681	0.10986	0.31189	0.70969	-0.001678	-0.024872
50.95	-0.005951	0.37598	-0.044403	-0.026093	0.001678	-0.007477	-0.32105	0.000763	-0.011139	-0.27374	-0.17197	0.005341	-0.041962	0.030365	0.045929	0.041199	-0.009003	-2.0404	-0.35141	0.10513	-0.087585	0.026855	-0.043488	0.21225	-0.33554	0.014496	0.068665	-0.10788	0.50308	0.68787	0.000305	-0.032349
50.951	-0.002899	0.37399	-0.040588	-0.022278	0.005493	-0.004578	-0.34882	-0.001678	-0.040283	-0.25574	-0.15991	0.01358	-0.026245	-0.005951	-0.050964	-0.001678	-0.002136	-2.2481	-0.52383	0.28091	-0.047455	0.036163	-0.42709	-0.14923	-0.02243	0.06546	0.003357	-0.089417	0.93018	0.64896	-0.003662	-0.036469
50.952	0.000916	0.4364	-0.048523	-0.012207	0.017242	0.018005	-0.32532	0.002747	-0.052795	-0.23834	-0.062408	0.023499	-0.049896	-0.039368	-0.046387	-0.014343	-0.001984	-2.2998	-0.14694	0.46387	0.045471	-0.12833	-0.69229	-0.34454	0.04425	0.090179	0.072632	0.012054	0.78171	0.21088	-0.003052	-0.030975
50.953	-0.001526	0.51086	-0.045624	0.011292	0.007172	0.019989	-0.20035	-0.004578	-0.079346	-0.21881	0.24445	0.022888	-0.13367	0.042114	0.07019	-0.014801	0.001984	-2.3268	-0.29907	0.28015	0.083618	-0.41199	-0.69183	-0.10361	0.14801	0.059509	0.16815	0.003815	1.111	0.006256	-0.003662	-0.031281
50.954	-0.000153	0.53162	-0.040131	0.023041	0.000916	0.061188	-0.060883	0	-0.10162	-0.17303	0.2977	0.015717	-0.13351	0.43304	0.052795	-0.022736	-0.015259	-2.498	-0.75989	0.024109	0.15945	-0.66055	-0.46585	0.068665	0.54428	0.025024	0.15274	0.002899	1.5022	-0.20142	-0.003052	-0.027313
50.955	0.003204	0.54489	-0.033264	0.038757	-0.001221	0.051575	0.006866	0.002594	-0.097504	-0.14893	0.20599	0.013275	-0.081024	0.6247	0.56839	-0.011902	-0.00061	-2.4408	-1.0558	-0.13138	0.17471	-0.41245	-0.13016	0.16693	0.4808	0.006409	0.27313	0.00061	0.65979	-0.23743	-0.003357	-0.014648
50.956	0.011139	0.51529	-0.030365	0.018311	0.001678	0.053101	-0.078583	0.010529	-0.10757	-0.15762	0.1033	0.019073	-0.043182	0.45532	0.17441	-0.016632	0.036926	-2.3534	-0.71381	-0.25406	-0.033569	0.26581	0.19959	0.09201	0.19028	0.018463	0.037384	0.002441	0.85266	-0.2066	-0.003662	-0.017242
50.957	0.001526	0.4715	-0.003967	-0.003357	-0.001678	0.037231	-0.13504	0.009308	-0.1001	-0.1474	-0.083313	0.020752	-0.025024	0.3067	0.52185	-0.036316	0.059357	-2.2713	-0.79453	-0.22201	-0.20737	0.40573	0.23819	-0.048523	-0.11337	0.03006	0.21378	0.005951	0.94482	-0.17425	-0.005798	-0.009003
50.958	0.00885	0.4747	-0.00061	-0.018463	0.000153	0.045624	-0.12817	0.004578	-0.079651	-0.1416	0.19836	0.013275	-0.007172	0.3447	-0.39566	-0.022125	0.05249	-2.3369	-0.7428	-0.075073	0.048981	0.07782	-0.041199	-0.439	-0.30701	0.022736	0.41245	-0.007629	-0.54077	0.056458	-0.002747	-0.009766
50.959	0.007629	0.46951	-0.040894	-0.02121	0.000305	0.03006	-0.20065	0.006866	-0.073395	-0.13092	0.29968	0.02121	-0.013275	0.3714	0.053711	-0.014191	0.0177	-2.227	-0.37201	0.059357	-0.069733	-0.001068	-0.12619	-0.36392	-0.53711	0.005341	0.25269	-0.010834	-1.516	0.072784	-0.005341	-0.019226
50.96	0.007935	0.41214	-0.065002	-0.001678	-0.000916	0.034332	-0.32745	0.011444	-0.090027	-0.10712	0.046387	0.010529	0.066071	0.30212	-0.12787	-0.008545	-0.014191	-2.18	-0.63248	0.12924	-0.21072	0.27588	0.092316	-0.12131	-0.40146	-0.001221	-0.066223	-0.011749	-2.1248	0.12238	-0.006104	-0.022583
50.961	0.005646	0.41458	-0.050812	0.016327	0.007477	0.02243	-0.33279	0.005951	-0.092773	-0.077972	-0.21515	0.016632	0.07843	0.25009	-0.48966	-0.00946	-0.012207	-2.2258	-0.47318	0.18005	-0.26733	0.41855	0.14481	0.050354	-0.003815	-0.008392	0.047607	-0.011292	-3.3949	-0.046387	-0.003662	-0.020905
50.962	0.003662	0.46097	-0.043182	0.022278	-0.00473	0.026093	-0.25299	-0.004425	-0.088348	-0.06073	-0.29053	0.005646	-0.024872	0.19608	0.26627	-0.018768	-0.006561	-2.0969	0.36896	0.13153	0.010529	0.052795	0.030975	0.12711	0.16708	-0.007324	-0.12054	-0.001221	-3.7866	-0.18601	-0.004272	-0.037537
50.963	-0.002289	0.44784	-0.06485	-0.01709	-0.011902	0.012665	-0.15747	0.002136	-0.067596	-0.021362	-0.26916	0.007782	-0.058594	0.050812	-0.040131	-0.01709	0.011139	-1.9957	-0.005798	0.040131	0.093384	-0.083466	0.045776	0.25574	0.23621	0.007782	-0.19898	-0.00946	-0.57846	-0.076599	-0.005035	-0.034332
50.964	-0.009613	0.43076	-0.038757	-0.010681	-0.009766	0.026093	-0.085144	0.015411	-0.06134	-0.074615	-0.24033	0.012512	0.014648	-0.037231	-0.44723	-0.013428	0.047302	-1.9638	-0.26169	-0.070038	0.037231	-0.033264	0.33508	0.20172	0.1387	0.01236	-0.23651	-0.002594	4.1911	-0.00351	-0.002594	-0.016174
50.965	-0.001526	0.40359	-0.018921	-0.005798	-0.015259	-0.003662	-0.043335	0.011902	-0.056763	-0.14374	-0.085602	0.009918	0.018463	0.022125	-0.55969	-0.002136	0.089417	-1.8683	0.022736	-0.17151	0.09201	-0.06073	0.4155	0.14511	0.13626	0.013885	-0.37796	0.000153	2.0589	-0.039368	-0.004425	-0.02121
